<svg width="16" height="16" viewBox="0 0 16 16" fill="none" xmlns="http://www.w3.org/2000/svg">
<path d="M12.5535 6.29366C12.4923 6.20319 12.4099 6.12912 12.3134 6.07797C12.2169 6.02682 12.1094 6.00016 12.0002 6.00033H10.0002V4.66699H11.4668C11.6436 4.66699 11.8132 4.59675 11.9382 4.47173C12.0633 4.34671 12.1335 4.17714 12.1335 4.00033V1.33366C12.1335 1.15685 12.0633 0.987279 11.9382 0.862254C11.8132 0.73723 11.6436 0.666992 11.4668 0.666992H9.3335C8.30799 0.666992 7.32449 1.07437 6.59935 1.79951C5.87421 2.52465 5.46683 3.50816 5.46683 4.53366V6.00033H4.00016C3.82335 6.00033 3.65378 6.07056 3.52876 6.19559C3.40373 6.32061 3.3335 6.49018 3.3335 6.66699V9.33366C3.3335 9.51047 3.40373 9.68004 3.52876 9.80506C3.65378 9.93009 3.82335 10.0003 4.00016 10.0003H5.46683V14.667C5.46683 14.8438 5.53707 15.0134 5.66209 15.1384C5.78712 15.2634 5.95669 15.3337 6.1335 15.3337H9.3335C9.51031 15.3337 9.67988 15.2634 9.8049 15.1384C9.92992 15.0134 10.0002 14.8438 10.0002 14.667V10.0003H10.9335C11.067 10.0005 11.1975 9.96049 11.308 9.8856C11.4186 9.81072 11.5041 9.70437 11.5535 9.58033L12.6202 6.91366C12.6604 6.81271 12.6754 6.70345 12.6638 6.59538C12.6522 6.48732 12.6143 6.38374 12.5535 6.29366ZM10.4802 8.66699H9.3335C9.15669 8.66699 8.98712 8.73723 8.86209 8.86226C8.73707 8.98728 8.66683 9.15685 8.66683 9.33366V14.0003H6.80016V9.33366C6.80016 9.15685 6.72992 8.98728 6.6049 8.86226C6.47988 8.73723 6.31031 8.66699 6.1335 8.66699H4.66683V7.33366H6.1335C6.31031 7.33366 6.47988 7.26342 6.6049 7.1384C6.72992 7.01337 6.80016 6.8438 6.80016 6.66699V4.53366C6.80192 3.86232 7.06939 3.21898 7.5441 2.74427C8.01881 2.26955 8.66216 2.00209 9.3335 2.00033H10.8002V3.33366H10.2668C10.0411 3.30077 9.81104 3.31457 9.59087 3.37421C9.37069 3.43384 9.16511 3.53803 8.98683 3.68033C8.87864 3.79359 8.79451 3.92759 8.73952 4.07425C8.68452 4.22091 8.65979 4.37719 8.66683 4.53366V6.66699C8.66683 6.8438 8.73707 7.01337 8.86209 7.1384C8.98712 7.26342 9.15669 7.33366 9.3335 7.33366H11.0135L10.4802 8.66699Z" fill="white"/>
</svg>
