<svg width="16" height="16" viewBox="0 0 16 16" fill="none" xmlns="http://www.w3.org/2000/svg">
<path d="M11.5602 3.63967C11.4019 3.63967 11.2473 3.68659 11.1157 3.7745C10.9841 3.8624 10.8816 3.98735 10.8211 4.13353C10.7605 4.27971 10.7447 4.44056 10.7755 4.59575C10.8064 4.75093 10.8826 4.89348 10.9945 5.00536C11.1064 5.11724 11.2489 5.19343 11.4041 5.2243C11.5593 5.25517 11.7201 5.23933 11.8663 5.17878C12.0125 5.11823 12.1374 5.01569 12.2253 4.88413C12.3132 4.75257 12.3602 4.5979 12.3602 4.43967C12.3602 4.2275 12.2759 4.02402 12.1258 3.87399C11.9758 3.72396 11.7723 3.63967 11.5602 3.63967ZM14.6268 5.25301C14.6139 4.69987 14.5103 4.15261 14.3202 3.63301C14.1507 3.18843 13.8868 2.78586 13.5468 2.45301C13.2167 2.11129 12.8132 1.84913 12.3668 1.68634C11.8486 1.49045 11.3007 1.38448 10.7468 1.37301C10.0402 1.33301 9.8135 1.33301 8.00016 1.33301C6.18683 1.33301 5.96016 1.33301 5.2535 1.37301C4.6996 1.38448 4.15172 1.49045 3.6335 1.68634C3.18795 1.85077 2.78479 2.11271 2.4535 2.45301C2.11178 2.78313 1.84961 3.18663 1.68683 3.63301C1.49094 4.15124 1.38497 4.69911 1.3735 5.25301C1.3335 5.95967 1.3335 6.18634 1.3335 7.99967C1.3335 9.81301 1.3335 10.0397 1.3735 10.7463C1.38497 11.3002 1.49094 11.8481 1.68683 12.3663C1.84961 12.8127 2.11178 13.2162 2.4535 13.5463C2.78479 13.8866 3.18795 14.1486 3.6335 14.313C4.15172 14.5089 4.6996 14.6149 5.2535 14.6263C5.96016 14.6663 6.18683 14.6663 8.00016 14.6663C9.8135 14.6663 10.0402 14.6663 10.7468 14.6263C11.3007 14.6149 11.8486 14.5089 12.3668 14.313C12.8132 14.1502 13.2167 13.8881 13.5468 13.5463C13.8883 13.2147 14.1524 12.8118 14.3202 12.3663C14.5103 11.8467 14.6139 11.2995 14.6268 10.7463C14.6268 10.0397 14.6668 9.81301 14.6668 7.99967C14.6668 6.18634 14.6668 5.95967 14.6268 5.25301ZM13.4268 10.6663C13.422 11.0895 13.3453 11.5088 13.2002 11.9063C13.0937 12.1965 12.9227 12.4586 12.7002 12.673C12.4839 12.8933 12.2223 13.064 11.9335 13.173C11.536 13.3182 11.1167 13.3948 10.6935 13.3997C10.0268 13.433 9.78016 13.4397 8.02683 13.4397C6.2735 13.4397 6.02683 13.4397 5.36016 13.3997C4.92076 13.4079 4.48323 13.3402 4.06683 13.1997C3.79068 13.0851 3.54107 12.9149 3.3335 12.6997C3.11222 12.4855 2.94339 12.2231 2.84016 11.933C2.6774 11.5298 2.58712 11.101 2.5735 10.6663C2.5735 9.99967 2.5335 9.75301 2.5335 7.99967C2.5335 6.24634 2.5335 5.99967 2.5735 5.33301C2.57648 4.90038 2.65546 4.47164 2.80683 4.06634C2.92419 3.78495 3.10434 3.53411 3.3335 3.33301C3.53604 3.10379 3.78635 2.92174 4.06683 2.79967C4.4732 2.65304 4.90149 2.57639 5.3335 2.57301C6.00016 2.57301 6.24683 2.53301 8.00016 2.53301C9.7535 2.53301 10.0002 2.53301 10.6668 2.57301C11.09 2.57786 11.5093 2.65451 11.9068 2.79967C12.2098 2.91211 12.4817 3.09491 12.7002 3.33301C12.9186 3.53779 13.0893 3.78816 13.2002 4.06634C13.3483 4.4723 13.425 4.90086 13.4268 5.33301C13.4602 5.99967 13.4668 6.24634 13.4668 7.99967C13.4668 9.75301 13.4602 9.99967 13.4268 10.6663ZM8.00016 4.57967C7.32404 4.58099 6.66347 4.78269 6.10193 5.15929C5.54039 5.53588 5.10308 6.07047 4.84525 6.69551C4.58742 7.32055 4.52065 8.00799 4.65336 8.67096C4.78607 9.33394 5.11232 9.9427 5.59088 10.4203C6.06944 10.898 6.67884 11.223 7.34207 11.3544C8.0053 11.4859 8.69261 11.4177 9.31714 11.1587C9.94168 10.8997 10.4754 10.4613 10.8509 9.89903C11.2264 9.33676 11.4268 8.6758 11.4268 7.99967C11.4277 7.54974 11.3396 7.10408 11.1677 6.68831C10.9957 6.27254 10.7432 5.89488 10.4247 5.57704C10.1063 5.2592 9.72813 5.00746 9.31203 4.83629C8.89593 4.66513 8.45009 4.57792 8.00016 4.57967ZM8.00016 10.2197C7.56109 10.2197 7.13187 10.0895 6.7668 9.84554C6.40172 9.6016 6.11718 9.25488 5.94915 8.84923C5.78112 8.44358 5.73716 7.99721 5.82282 7.56657C5.90848 7.13594 6.11991 6.74037 6.43039 6.4299C6.74086 6.11942 7.13642 5.90799 7.56706 5.82233C7.9977 5.73667 8.44407 5.78063 8.84972 5.94866C9.25537 6.11669 9.60209 6.40123 9.84602 6.76631C10.09 7.13139 10.2202 7.5606 10.2202 7.99967C10.2202 8.29121 10.1627 8.57989 10.0512 8.84923C9.93961 9.11857 9.77609 9.36331 9.56994 9.56945C9.36379 9.7756 9.11906 9.93912 8.84972 10.0507C8.58038 10.1623 8.2917 10.2197 8.00016 10.2197Z" fill="white"/>
</svg>
