<svg width="16" height="16" viewBox="0 0 16 16" fill="none" xmlns="http://www.w3.org/2000/svg">
<path d="M9.92683 6.98699L7.92683 5.82699C7.74914 5.72201 7.54654 5.66663 7.34016 5.66663C7.13378 5.66663 6.93118 5.72201 6.7535 5.82699C6.57445 5.92792 6.42602 6.07539 6.32392 6.25377C6.22182 6.43215 6.16984 6.63482 6.1735 6.84033V9.16033C6.16984 9.36583 6.22182 9.5685 6.32392 9.74688C6.42602 9.92526 6.57445 10.0727 6.7535 10.1737C6.93118 10.2786 7.13378 10.334 7.34016 10.334C7.54654 10.334 7.74914 10.2786 7.92683 10.1737L9.92683 9.01366C10.0978 8.90872 10.239 8.76169 10.337 8.58661C10.435 8.41154 10.4864 8.21428 10.4864 8.01366C10.4864 7.81304 10.435 7.61578 10.337 7.4407C10.239 7.26563 10.0978 7.1186 9.92683 7.01366V6.98699ZM7.4935 8.88033V7.12033L9.0135 8.00033L7.4935 8.88033ZM12.6668 2.66699H3.3335C2.80306 2.66699 2.29436 2.87771 1.91928 3.25278C1.54421 3.62785 1.3335 4.13656 1.3335 4.66699V11.3337C1.3335 11.8641 1.54421 12.3728 1.91928 12.7479C2.29436 13.1229 2.80306 13.3337 3.3335 13.3337H12.6668C13.1973 13.3337 13.706 13.1229 14.081 12.7479C14.4561 12.3728 14.6668 11.8641 14.6668 11.3337V4.66699C14.6668 4.13656 14.4561 3.62785 14.081 3.25278C13.706 2.87771 13.1973 2.66699 12.6668 2.66699ZM13.3335 11.3337C13.3335 11.5105 13.2633 11.68 13.1382 11.8051C13.0132 11.9301 12.8436 12.0003 12.6668 12.0003H3.3335C3.15668 12.0003 2.98712 11.9301 2.86209 11.8051C2.73707 11.68 2.66683 11.5105 2.66683 11.3337V4.66699C2.66683 4.49018 2.73707 4.32061 2.86209 4.19559C2.98712 4.07056 3.15668 4.00033 3.3335 4.00033H12.6668C12.8436 4.00033 13.0132 4.07056 13.1382 4.19559C13.2633 4.32061 13.3335 4.49018 13.3335 4.66699V11.3337Z" fill="white"/>
</svg>
