<svg width="24" height="24" viewBox="0 0 24 24" fill="none" xmlns="http://www.w3.org/2000/svg">
<path d="M16.8181 8.53929C16.7126 8.46041 16.5927 8.40312 16.4651 8.37072L9.57525 6.78007C9.44677 6.75041 9.31371 6.74634 9.18366 6.76811C9.05361 6.78987 8.92912 6.83704 8.81729 6.90691C8.59146 7.04803 8.43093 7.27308 8.37102 7.53256C8.34136 7.66104 8.3373 7.7941 8.35906 7.92415C8.38082 8.0542 8.42799 8.17869 8.49786 8.29052C8.63898 8.51635 8.86403 8.67688 9.12351 8.73679L13.6655 9.77813L7.22882 13.8002C7.0039 13.9408 6.84403 14.1649 6.78437 14.4233C6.7247 14.6817 6.77014 14.9533 6.91069 15.1782C7.05123 15.4031 7.27537 15.563 7.53378 15.6226C7.7922 15.6823 8.06374 15.6369 8.28865 15.4963L14.7253 11.4742L13.6702 16.013C13.64 16.1415 13.6355 16.2748 13.657 16.405C13.6786 16.5353 13.7257 16.6599 13.7956 16.7719C13.8656 16.8839 13.957 16.9808 14.0646 17.0573C14.1723 17.1337 14.294 17.1881 14.4227 17.2173C14.5512 17.2475 14.6844 17.252 14.8147 17.2304C14.9449 17.2089 15.0696 17.1618 15.1816 17.0919C15.2935 17.0219 15.3905 16.9305 15.4669 16.8229C15.5434 16.7152 15.5978 16.5935 15.6269 16.4648L17.2176 9.57494C17.2444 9.44605 17.2455 9.31313 17.2208 9.18381C17.1766 8.92434 17.0319 8.69275 16.8181 8.53929Z" fill="white"/>
</svg>
